<!-- Generator: Adobe Illustrator 19.0.0, SVG Export Plug-In  -->
<svg version="1.1"
	 xmlns="http://www.w3.org/2000/svg" xmlns:xlink="http://www.w3.org/1999/xlink" xmlns:a="http://ns.adobe.com/AdobeSVGViewerExtensions/3.0/"
	 x="0px" y="0px" width="32px" height="32px" viewBox="0 0 32 32" style="enable-background:new 0 0 32 32;" xml:space="preserve">

<defs>
</defs>
<path class="st0" d="M32,25.2c-4,0-7.3-3.4-7.3-7.6V8.4l-0.1-0.8h-0.1C23.8,3.2,20.3,0,16,0S8.1,3.2,7.3,7.6l0,0l-0.1,10
	c0,4.2-3.3,7.6-7.3,7.6v1.6h10.6c0,2.9,2.3,5.2,5,5.2c2.7,0,5-2.3,5-5.2H32V25.2z M15.6,30.4c-1.7,0-3.1-1.3-3.4-2.9h6.9
	C18.7,29.2,17.3,30.4,15.6,30.4z M4.9,25.2c2.3-1.7,3.9-4.5,3.9-7.6V9.2l0.1-0.7c0.4-3.9,3.5-6.9,7.2-6.9c3.7,0,6.8,3,7.2,6.9
	l0.1,0.4v8.8c0,3.2,1.5,6,3.9,7.6H4.9z"/>
</svg>
