<!-- Generator: Adobe Illustrator 19.0.0, SVG Export Plug-In  -->
<svg version="1.1"
	 xmlns="http://www.w3.org/2000/svg" xmlns:xlink="http://www.w3.org/1999/xlink" xmlns:a="http://ns.adobe.com/AdobeSVGViewerExtensions/3.0/"
	 x="0px" y="0px" width="32px" height="39.2px" viewBox="0 0 32 39.2" style="enable-background:new 0 0 32 39.2;"
	 xml:space="preserve">

<defs>
</defs>
<g id="XMLID_16_">
	<g id="XMLID_18_">
		<g id="XMLID_19_">
			<path id="XMLID_27_" class="st0" d="M0,39.2h32V12.5H0V39.2z M1.1,32.8h4.8v5.3H1.1V32.8z M18.7,26.4v5.3h-5.3v-5.3H18.7z
				 M13.3,25.3V20h5.3v5.3H13.3z M12.3,31.7H6.9v-5.3h5.3V31.7z M12.3,32.8v5.3H6.9v-5.3H12.3z M13.3,32.8h5.3v5.3h-5.3V32.8z
				 M19.7,32.8h5.3v5.3h-5.3V32.8z M19.7,31.7v-5.3h5.3v5.3H19.7z M26.1,26.4h4.8v5.3h-4.8V26.4z M26.1,25.3V20h4.8v5.3H26.1z
				 M25.1,25.3h-5.3V20h5.3V25.3z M19.7,18.9v-5.3h5.3v5.3H19.7z M18.7,18.9h-5.3v-5.3h5.3V18.9z M12.3,18.9H6.9v-5.3h5.3V18.9z
				 M12.3,20v5.3H6.9V20H12.3z M5.9,25.3H1.1V20h4.8V25.3z M5.9,26.4v5.3H1.1v-5.3H5.9z M26.1,38.1v-5.3h4.8v5.3H26.1z M30.9,18.9
				h-4.8v-5.3h4.8V18.9z M5.9,13.6v5.3H1.1v-5.3H5.9z"/>
			<path id="XMLID_23_" class="st0" d="M27.7,4.5h-1.1V1.1c0-0.6-0.5-1.1-1.1-1.1s-1.1,0.5-1.1,1.1v3.5H7.5V1.1C7.5,0.5,7,0,6.4,0
				S5.3,0.5,5.3,1.1v3.5H4.3C1.9,4.5,0,6.2,0,8.5v2.4h32V8.5C32,6.2,30.1,4.5,27.7,4.5z M6.4,9.6c-1.2,0-2.1-1-2.1-2.1
				c0-0.8,0.4-1.5,1.1-1.8v1.8c0,0.6,0.5,1.1,1.1,1.1s1.1-0.5,1.1-1.1V5.6c0.6,0.4,1.1,1,1.1,1.8C8.5,8.6,7.6,9.6,6.4,9.6z
				 M25.6,9.6c-1.2,0-2.1-1-2.1-2.1c0-0.8,0.4-1.5,1.1-1.8v1.8c0,0.6,0.5,1.1,1.1,1.1s1.1-0.5,1.1-1.1V5.6c0.6,0.4,1.1,1,1.1,1.8
				C27.7,8.6,26.8,9.6,25.6,9.6z"/>
			<rect id="XMLID_22_" x="8" y="14.7" class="st0" width="3.2" height="3.2"/>
			<rect id="XMLID_21_" x="20.8" y="27.5" class="st0" width="3.2" height="3.2"/>
			<rect id="XMLID_20_" x="14.4" y="27.5" class="st0" width="3.2" height="3.2"/>
		</g>
	</g>
</g>
</svg>