<!-- Generator: Adobe Illustrator 19.0.0, SVG Export Plug-In  -->
<svg version="1.1"
	 xmlns="http://www.w3.org/2000/svg" xmlns:xlink="http://www.w3.org/1999/xlink" xmlns:a="http://ns.adobe.com/AdobeSVGViewerExtensions/3.0/"
	 x="0px" y="0px" width="32px" height="32px" viewBox="0 0 32 32" style="enable-background:new 0 0 32 32;" xml:space="preserve">

<defs>
</defs>
<g id="XMLID_1_">
	<path class="st0" d="M13.6,32l0.9-1.9c0.2-0.3,0.3-0.6,0.5-0.9c0.4-0.6,0.7-1.2,1-1.9c0.7-1.7,1.1-3.3,1-4.8
		c-1.8,0.3-3.6,0.4-5.5,0.2c-1-0.1-2.1-0.2-3.2-0.5c-1.8-0.4-4-1.1-6-2.9c-1.8-1.7-2.6-4-2.1-6.7c0.2-1.2,0.6-2.5,1.4-3.7
		c1.4-2.5,3.4-4.4,6.1-6c2.5-1.5,5.2-2.4,8.3-2.7c2.5-0.3,4.7-0.1,6.9,0.5c2.7,0.8,4.8,2.1,6.4,3.9c1.6,1.8,2.5,3.8,2.8,6.2
		c0.2,1.8-0.3,3.4-0.8,4.8c-1.3,3.5-3.3,6.7-6.1,9.7c-2.6,2.7-5.6,4.8-9,6.1c-0.1,0-0.2,0.1-0.4,0.1L13.6,32z M17.4,20.5
		c0.2,0,0.5,0.1,0.7,0.2c0.4,0.4,0.5,0.9,0.5,1.4c0.2,1.9-0.2,3.9-1.1,5.9c-0.1,0.2-0.2,0.4-0.3,0.7c2.4-1.2,4.6-2.8,6.5-4.8
		c2.7-2.8,4.5-5.8,5.7-9c0.4-1.1,0.8-2.5,0.7-3.9C30,9,29.2,7.4,27.9,5.8c-1.4-1.6-3.3-2.7-5.6-3.4c-1.9-0.6-3.9-0.7-6.2-0.5
		c-2.8,0.3-5.3,1.1-7.6,2.5C6,5.9,4.3,7.6,3.1,9.8c-0.6,1.1-1,2.1-1.2,3.1c-0.3,2.1,0.2,3.7,1.6,5.1C5.1,19.4,7,20,8.6,20.4
		c1,0.2,2.1,0.3,3,0.4c1.8,0.2,3.6,0.1,5.3-0.2C17.1,20.5,17.3,20.5,17.4,20.5z"/>
</g>
</svg>