<!-- Generator: Adobe Illustrator 19.0.0, SVG Export Plug-In  -->
<svg version="1.1"
	 xmlns="http://www.w3.org/2000/svg" xmlns:xlink="http://www.w3.org/1999/xlink" xmlns:a="http://ns.adobe.com/AdobeSVGViewerExtensions/3.0/"
	 x="0px" y="0px" width="32px" height="32px" viewBox="0 0 32 32" style="enable-background:new 0 0 32 32;" xml:space="preserve">

<defs>
</defs>
<path id="XMLID_2_" class="st0" d="M18.1,15.8c0.4,0.4,0.6,0.7,0.8,0.9c4.1,4.1,8.3,8.2,12.4,12.4c0.4,0.4,0.7,1.1,0.7,1.6
	c0,0.4-0.6,1-1,1.1c-0.5,0.1-1.3-0.1-1.7-0.5c-2.4-2.3-4.7-4.6-7-7c-2.1-2.1-4.1-4.1-6.2-6.3c-0.4,0.3-0.6,0.6-0.9,0.9
	C11,23.1,6.9,27.2,2.8,31.3c-0.5,0.5-1.1,0.8-1.8,0.5c-0.4-0.2-1-0.7-1-1.1c0-0.6,0.3-1.2,0.7-1.6C4.8,25,8.9,20.9,13,16.9
	c0.3-0.3,0.7-0.4,1-0.6c-0.5-0.5-0.7-0.7-0.9-1C9,11.2,4.8,7.1,0.7,2.9C0.3,2.5,0,1.8,0,1.3c0-0.4,0.6-1,1-1.1
	c0.5-0.1,1.3,0.1,1.7,0.5c2.4,2.3,4.7,4.6,7,7c2.1,2.1,4.1,4.1,6.2,6.3c0.4-0.3,0.6-0.6,0.9-0.8C21,8.9,25.1,4.8,29.2,0.7
	c0.5-0.5,1.1-0.9,1.8-0.5c0.4,0.2,1,0.7,1,1.1c0,0.6-0.3,1.2-0.7,1.6c-4.1,4.1-8.1,8.2-12.2,12.2C18.8,15.4,18.4,15.6,18.1,15.8z"/>
</svg>