<!-- Generator: Adobe Illustrator 19.0.0, SVG Export Plug-In  -->
<svg version="1.1"
	 xmlns="http://www.w3.org/2000/svg" xmlns:xlink="http://www.w3.org/1999/xlink" xmlns:a="http://ns.adobe.com/AdobeSVGViewerExtensions/3.0/"
	 x="0px" y="0px" width="32px" height="32px" viewBox="0 0 32 32" style="enable-background:new 0 0 32 32;" xml:space="preserve">

<defs>
</defs>
<g id="Facebook_1_">
	<path id="Facebook_2_" class="st0" d="M30.2,0H1.8C0.8,0,0,0.8,0,1.8v28.5c0,1,0.8,1.8,1.8,1.8h15.3V19.6h-4.2v-4.8h4.2v-3.6
		c0-4.1,2.5-6.4,6.2-6.4C25.1,4.8,26.6,5,27,5v4.3l-2.6,0c-2,0-2.4,1-2.4,2.4v3.1h4.8l-0.6,4.8h-4.2V32h8.2c1,0,1.8-0.8,1.8-1.8V1.8
		C32,0.8,31.2,0,30.2,0z"/>
</g>
</svg>