<!-- Generator: Adobe Illustrator 19.0.0, SVG Export Plug-In  -->
<svg version="1.1"
	 xmlns="http://www.w3.org/2000/svg" xmlns:xlink="http://www.w3.org/1999/xlink" xmlns:a="http://ns.adobe.com/AdobeSVGViewerExtensions/3.0/"
	 x="0px" y="0px" width="32px" height="50.2px" viewBox="0 0 32 50.2" style="enable-background:new 0 0 32 50.2;"
	 xml:space="preserve">

<defs>
</defs>
<g id="XMLID_15_">
	<g id="XMLID_17_">
		<path id="XMLID_19_" class="st0" d="M6.8,15.4c0-2.5-0.2-5.1,0.1-7.5C7.4,3.4,11.5,0,16.1,0c4.5,0,8.6,3.4,9.3,7.8
			c0.1,0.7,0.2,1.4,0.2,2c0,3.9,0,7.8,0,11.6c-0.1,4.8-3.3,8.6-8,9.4c-5.6,0.9-10.8-3.3-11-9.1c-0.1-2.1,0-4.2,0-6.3
			C6.7,15.4,6.7,15.4,6.8,15.4z M9.2,15.4c0,2,0,4.1,0,6.1c0,3.8,3.1,6.8,6.8,6.8c3.8,0,6.9-3,6.9-6.8c0-4.1,0-8.1,0-12.2
			c0-3.8-3.1-6.8-6.8-6.8c-3.9,0-6.9,3-6.9,6.8C9.2,11.4,9.2,13.4,9.2,15.4z"/>
		<path id="XMLID_18_" class="st0" d="M17.3,37.6c0,3.2,0,6.4,0,9.5c0,0.2,0.1,0.3,0.1,0.6c1.6,0,3.2,0,4.8,0c0.3,0,0.7,0,1,0
			c0.8,0.1,1.4,0.5,1.3,1.4c0,0.8-0.6,1.2-1.4,1.2c-1.7,0-3.3,0-5,0c-3,0-6,0-9,0c-1,0-1.6-0.5-1.6-1.3c0-0.8,0.6-1.3,1.6-1.3
			c1.8,0,3.6,0,5.5,0c0-0.4,0.1-0.7,0.1-1.1c0-2.7-0.1-5.5-0.1-8.2c0-0.8-0.3-1-1-1.1C5.9,36.3-0.1,29.3,0,21.5c0-1,0.5-1.5,1.2-1.5
			c1,0,1.3,0.6,1.3,1.5c0.2,7.4,5.4,11.9,10.4,13.2c7.6,1.9,15.6-3.7,16.4-11.5c0.1-0.5,0.1-1.1,0.1-1.6c0-0.9,0.4-1.5,1.3-1.5
			c0.8,0,1.2,0.6,1.2,1.5c0,4.3-1.5,8-4.5,11.1c-2.5,2.6-5.6,4.2-9.3,4.8C17.9,37.4,17.6,37.5,17.3,37.6z"/>
	</g>
</g>
</svg>