<!-- Generator: Adobe Illustrator 19.0.0, SVG Export Plug-In  -->
<svg version="1.1"
	 xmlns="http://www.w3.org/2000/svg" xmlns:xlink="http://www.w3.org/1999/xlink" xmlns:a="http://ns.adobe.com/AdobeSVGViewerExtensions/3.0/"
	 x="0px" y="0px" width="35px" height="35.5px" viewBox="0 0 35 35.5" style="enable-background:new 0 0 35 35.5;"
	 xml:space="preserve">
<style type="text/css">
	.st0{fill:#FFFFFF;}
	.st1{clip-path:url(#SVGID_2_);}
	.st2{fill:#3C908C;}
	.st3{clip-path:url(#SVGID_4_);}
</style>
<defs>
</defs>
<circle class="st0" cx="17.5" cy="17.5" r="17.5"/>
<g>
	<defs>
		<circle id="SVGID_1_" cx="17.5" cy="17.5" r="17.5"/>
	</defs>
	<clipPath id="SVGID_2_">
		<use xlink:href="#SVGID_1_"  style="overflow:visible;"/>
	</clipPath>
	<g class="st1">
		<g id="XMLID_1_">
			<g>
				<path id="XMLID_4_" class="st2" d="M23.8,18.3c0,3.5-2.8,6.3-6.3,6.3c-3.5,0-6.3-2.8-6.3-6.3c0-3.5,2.8-6.3,6.3-6.3
					C21,12,23.8,14.8,23.8,18.3z"/>
				<path id="XMLID_3_" class="st2" d="M30.5,35c-0.4-4.9-3.6-8.6-8.1-10.4c-1.4,1.1-3.1,1.9-4.9,1.9c-1.9,0-3.5-0.5-4.9-1.5
					c-4.4,1.8-7.6,5.1-8,10l0,0l-0.1,0.6h26.1L30.5,35L30.5,35z"/>
			</g>
		</g>
	</g>
</g>
</svg>