<!-- Generator: Adobe Illustrator 19.0.0, SVG Export Plug-In  -->
<svg version="1.1"
	 xmlns="http://www.w3.org/2000/svg" xmlns:xlink="http://www.w3.org/1999/xlink" xmlns:a="http://ns.adobe.com/AdobeSVGViewerExtensions/3.0/"
	 x="0px" y="0px" width="32px" height="32px" viewBox="0 0 32 32" style="enable-background:new 0 0 32 32;" xml:space="preserve">

<defs>
</defs>
<path class="st0" d="M31.7,30.1L21.2,19.3c1.4-2,2.3-4.5,2.3-7.1C23.5,5.5,18.2,0,11.8,0S0,5.5,0,12.2s5.3,12.2,11.8,12.2
	c3.1,0,6-1.3,8.1-3.3l10.3,10.7c0.4,0.4,1.1,0.4,1.5,0C32.1,31.2,32.1,30.5,31.7,30.1z M11.8,22.1c-5.3,0-9.6-4.5-9.6-9.9
	s4.3-9.9,9.6-9.9s9.6,4.5,9.6,9.9S17.1,22.1,11.8,22.1z"/>
</svg>