<!-- Generator: Adobe Illustrator 19.0.0, SVG Export Plug-In  -->
<svg version="1.1"
	 xmlns="http://www.w3.org/2000/svg" xmlns:xlink="http://www.w3.org/1999/xlink" xmlns:a="http://ns.adobe.com/AdobeSVGViewerExtensions/3.0/"
	 x="0px" y="0px" width="32px" height="24.6px" viewBox="0 0 32 24.6" style="enable-background:new 0 0 32 24.6;"
	 xml:space="preserve">

<defs>
</defs>
<g id="XMLID_17_">
	<path id="XMLID_18_" class="st0" d="M32,10.7c-4.8,3.5-9.4,7-14.2,10.6c0-2.4,0-4.7,0-7c-0.1,0-0.1-0.1-0.2-0.1
		c-2.6,0-5.2,0.2-7.7,1c-3.2,1.1-5.5,3.2-7.5,5.9c-0.8,1.1-1.6,2.3-2.5,3.5c0.1-0.8,0.2-1.7,0.4-2.5c0.6-3.5,1.9-6.8,4.1-9.6
		c2.8-3.5,6.5-5.3,10.9-5.8c0.8-0.1,1.6-0.1,2.4-0.2c0-2.2,0-4.3,0-6.6C22.6,3.6,27.3,7.1,32,10.7z"/>
</g>
</svg>