<!-- Generator: Adobe Illustrator 19.0.0, SVG Export Plug-In  -->
<svg version="1.1"
	 xmlns="http://www.w3.org/2000/svg" xmlns:xlink="http://www.w3.org/1999/xlink" xmlns:a="http://ns.adobe.com/AdobeSVGViewerExtensions/3.0/"
	 x="0px" y="0px" width="32px" height="32px" viewBox="0 0 32 32" style="enable-background:new 0 0 32 32;" xml:space="preserve">

<defs>
</defs>
<g id="XMLID_15_">
	<g id="XMLID_17_">
		<g id="XMLID_22_">
			<path id="XMLID_23_" class="st0" d="M16,32C7.2,32,0,24.8,0,16S7.2,0,16,0s16,7.2,16,16S24.8,32,16,32z M16,1C7.7,1,1,7.7,1,16
				s6.7,15,15,15s15-6.7,15-15S24.3,1,16,1z"/>
		</g>
		<g id="XMLID_19_">
			<ellipse id="XMLID_21_" class="st0" cx="9.5" cy="11.2" rx="2" ry="2.7"/>
			<ellipse id="XMLID_20_" class="st0" cx="22.5" cy="11.2" rx="2" ry="2.7"/>
		</g>
		<path id="XMLID_18_" class="st0" d="M7.5,18.4c1.9,0.5,3.4,1.1,4.8,1.5c1.4,0.4,2.6,0.6,3.7,0.7c1.1,0,2.3-0.2,3.7-0.7
			c1.4-0.4,2.9-1,4.8-1.5c-0.5,1.9-1.5,3.4-2.9,4.7c-1.4,1.3-3.4,2.2-5.6,2.2c-2.2,0-4.2-0.9-5.6-2.2C9,21.8,8,20.3,7.5,18.4z"/>
	</g>
</g>
</svg>