<!-- Generator: Adobe Illustrator 19.0.0, SVG Export Plug-In  -->
<svg version="1.1"
	 xmlns="http://www.w3.org/2000/svg" xmlns:xlink="http://www.w3.org/1999/xlink" xmlns:a="http://ns.adobe.com/AdobeSVGViewerExtensions/3.0/"
	 x="0px" y="0px" width="64px" height="47.3px" viewBox="0 0 64 47.3" style="enable-background:new 0 0 64 47.3;"
	 xml:space="preserve">

<defs>
</defs>
<path id="XMLID_23_" class="st0" d="M58.4,47.3H5.6c-3.1,0-5.6-2.5-5.6-5.6V11.1c0-3.1,2.5-5.6,5.6-5.6H7l0,0C7,4,8.2,2.8,9.7,2.8
	h2.8c1.5,0,2.8,1.2,2.8,2.8h2.8c0,0,1.6-0.2,2.8-1.4l2.8-2.8c0,0,1.1-1.4,2.8-1.4h11.1c1.8,0,2.8,1.4,2.8,1.4l2.8,2.8
	c1.2,1.2,2.8,1.4,2.8,1.4h12.5c3.1,0,5.6,2.5,5.6,5.6v30.6C64,44.8,61.5,47.3,58.4,47.3z M61.2,11.1c0-1.5-1.2-2.8-2.8-2.8l-12.8,0
	c-0.4,0-2.6-0.4-4.4-2.2l-3-3L38.1,3c0,0-0.2-0.2-0.5-0.2H26.4c-0.2,0-0.5,0.2-0.6,0.3l-0.1,0.1l-2.9,2.9c-1.8,1.8-4,2.1-4.4,2.2
	l-5.8,0c0,0-0.1,0-0.1,0H9.7c0,0,0,0-0.1,0l-4.1,0c-1.5,0-2.8,1.2-2.8,2.8v30.6c0,1.5,1.2,2.8,2.8,2.8h52.9c1.5,0,2.8-1.2,2.8-2.8
	V11.1z M32,41.7c-8.5,0-15.3-6.9-15.3-15.3S23.5,11.1,32,11.1S47.3,18,47.3,26.4S40.5,41.7,32,41.7z M32,13.9
	c-6.9,0-12.5,5.6-12.5,12.5S25.1,39,32,39s12.5-5.6,12.5-12.5S38.9,13.9,32,13.9z M32,33.4c-3.8,0-7-3.1-7-7s3.1-7,7-7s7,3.1,7,7
	S35.8,33.4,32,33.4z M32,22.3c-2.3,0-4.2,1.9-4.2,4.2c0,2.3,1.9,4.2,4.2,4.2c2.3,0,4.2-1.9,4.2-4.2C36.2,24.1,34.3,22.3,32,22.3z
	 M12.5,16.7H7c-0.8,0-1.4-0.6-1.4-1.4v-2.8c0-0.8,0.6-1.4,1.4-1.4h5.6c0.8,0,1.4,0.6,1.4,1.4v2.8C13.9,16.1,13.3,16.7,12.5,16.7z"/>
</svg>